<?xml version="1.0" standalone="no"?>
<!DOCTYPE svg PUBLIC "-//W3C//DTD SVG 20010904//EN"
 "http://www.w3.org/TR/2001/REC-SVG-20010904/DTD/svg10.dtd">
<svg version="1.0" xmlns="http://www.w3.org/2000/svg"
 width="29.000000pt" height="27.000000pt" viewBox="0 0 29.000000 27.000000"
 preserveAspectRatio="xMidYMid meet">

<g transform="translate(0.000000,27.000000) scale(0.100000,-0.100000)"
fill="#000000" stroke="none">
<path d="M38 249 c-15 -8 -18 -25 -18 -93 0 -59 4 -87 14 -95 9 -8 54 -11 132
-9 l119 3 3 90 c2 76 0 92 -14 102 -22 16 -211 17 -236 2z"/>
<path d="M67 23 c-19 -18 1 -23 88 -23 78 0 95 3 95 15 0 12 -16 15 -88 15
-49 0 -92 -3 -95 -7z"/>
</g>
</svg>
